HIERARCHY
ROOT Hips
{
	OFFSET 0.000000 0.000000 0.000000
	CHANNELS 6 Xposition Yposition Zposition Zrotation Yrotation Xrotation 
	JOINT LHipJoint
	{
		OFFSET 0.000000 0.000000 0.000000
		CHANNELS 3 Zrotation Yrotation Xrotation
		JOINT LeftUpLeg
		{
			OFFSET 1.363060 -1.794630 0.839290
			CHANNELS 3 Zrotation Yrotation Xrotation
			JOINT LeftLeg
			{
				OFFSET 2.448110 -6.726130 0.000000
				CHANNELS 3 Zrotation Yrotation Xrotation
				JOINT LeftFoot
				{
					OFFSET 2.562200 -7.039590 0.000000
					CHANNELS 3 Zrotation Yrotation Xrotation
					JOINT LeftToeBase
					{
						OFFSET 0.157640 -0.433110 2.322550
						CHANNELS 3 Zrotation Yrotation Xrotation
						End Site
						{
							OFFSET 0.000000 0.000000 0.000000
						}
					}
				}
			}
		}
	}
	JOINT RHipJoint
	{
		OFFSET 0.000000 0.000000 0.000000
		CHANNELS 3 Zrotation Yrotation Xrotation
		JOINT RightUpLeg
		{
			OFFSET -1.305520 -1.794630 0.839290
			CHANNELS 3 Zrotation Yrotation Xrotation
			JOINT RightLeg
			{
				OFFSET -2.542530 -6.985550 0.000000
				CHANNELS 3 Zrotation Yrotation Xrotation
				JOINT RightFoot
				{
					OFFSET -2.568260 -7.056230 0.000000
					CHANNELS 3 Zrotation Yrotation Xrotation
					JOINT RightToeBase
					{
						OFFSET -0.164730 -0.452590 2.363150
						CHANNELS 3 Zrotation Yrotation Xrotation
						End Site
						{
							OFFSET 0.000000 0.000000 0.000000
						}
					}
				}
			}
		}
	}
	JOINT LowerBack
	{
		OFFSET 0.000000 0.000000 0.000000
		CHANNELS 3 Zrotation Yrotation Xrotation
		JOINT Spine
		{
			OFFSET 0.028270 2.035590 -0.193380
			CHANNELS 3 Zrotation Yrotation Xrotation
			JOINT Spine1
			{
				OFFSET 0.056720 2.048850 -0.042750
				CHANNELS 3 Zrotation Yrotation Xrotation
				JOINT Neck
				{
					OFFSET 0.000000 0.000000 0.000000
					CHANNELS 3 Zrotation Yrotation Xrotation
					JOINT Neck1
					{
						OFFSET -0.054170 1.746240 0.172020
						CHANNELS 3 Zrotation Yrotation Xrotation
						JOINT Head
						{
							OFFSET 0.104070 1.761360 -0.123970
							CHANNELS 3 Zrotation Yrotation Xrotation
							End Site
							{
								OFFSET 0.000000 0.000000 0.000000
							}
						}
					}
				}
				JOINT LeftShoulder
				{
					OFFSET 0.000000 0.000000 0.000000
					CHANNELS 3 Zrotation Yrotation Xrotation
					JOINT LeftArm
					{
						OFFSET 3.362410 1.200890 -0.311210
						CHANNELS 3 Zrotation Yrotation Xrotation
						JOINT LeftForeArm
						{
							OFFSET 4.983000 -0.000000 -0.000000
							CHANNELS 3 Zrotation Yrotation Xrotation
							JOINT LeftHand
							{
								OFFSET 3.483560 -0.000000 -0.000000
								CHANNELS 3 Zrotation Yrotation Xrotation
								JOINT LeftFingerBase
								{
									OFFSET 0.000000 0.000000 0.000000
									CHANNELS 3 Zrotation Yrotation Xrotation
									JOINT LeftHandIndex1
									{
										OFFSET 0.715260 -0.000000 -0.000000
										CHANNELS 3 Zrotation Yrotation Xrotation
										End Site
										{
											OFFSET 0.000000 0.000000 0.000000
										}
									}
								}
								JOINT LThumb
								{
									OFFSET 0.000000 0.000000 0.000000
									CHANNELS 3 Zrotation Yrotation Xrotation
									End Site
									{
										OFFSET 0.000000 0.000000 0.000000
									}
								}
							}
						}
					}
				}
				JOINT RightShoulder
				{
					OFFSET 0.000000 0.000000 0.000000
					CHANNELS 3 Zrotation Yrotation Xrotation
					JOINT RightArm
					{
						OFFSET -3.136600 1.374050 -0.404650
						CHANNELS 3 Zrotation Yrotation Xrotation
						JOINT RightForeArm
						{
							OFFSET -5.241900 -0.000000 -0.000000
							CHANNELS 3 Zrotation Yrotation Xrotation
							JOINT RightHand
							{
								OFFSET -3.444170 -0.000000 -0.000000
								CHANNELS 3 Zrotation Yrotation Xrotation
								JOINT RightFingerBase
								{
									OFFSET 0.000000 0.000000 0.000000
									CHANNELS 3 Zrotation Yrotation Xrotation
									JOINT RightHandIndex1
									{
										OFFSET -0.622530 -0.000000 -0.000000
										CHANNELS 3 Zrotation Yrotation Xrotation
										End Site
										{
											OFFSET 0.000000 0.000000 0.000000
										}
									}
								}
								JOINT RThumb
								{
									OFFSET 0.000000 0.000000 0.000000
									CHANNELS 3 Zrotation Yrotation Xrotation
									End Site
									{
										OFFSET 0.000000 0.000000 0.000000
									}
								}
							}
						}
					}
				}
			}
		}
	}
}
MOTION
Frames: 8
Frame Time: 0.008333
-0.134605 17.666177 -4.888399 -3.383219 -6.851037 4.766730 2.107808 1.462155 0.587137 -12.852384 -10.172709 -32.395094 2.582163 11.652564 33.102304 -1.971883 10.548852 1.137395 0.086900 -1.901500 -5.233600 -3.566638 -2.890740 0.594596 32.338359 4.590101 4.363782 -0.753572 -4.617119 16.619268 0.244584 -2.802430 -6.830649 -0.153200 -2.522100 6.950800 4.344476 2.712344 6.801196 1.089810 3.591060 -0.925696 0.806247 2.248510 -2.975292 -7.453201 -4.148810 -12.140791 5.198732 -4.827790 14.037634 3.280100 -2.522700 9.687000 -7.136537 3.187412 -2.463876 -81.552699 6.210186 26.098130 13.278501 -24.457465 -3.687814 -0.409073 -3.067766 7.998418 11.447003 23.071273 5.120500 -7.125000 0.000000 0.000000 -19.801700 55.550000 -5.277100 5.531355 -2.025284 -1.921919 79.897429 4.107580 20.441615 -16.192713 24.068153 -4.522821 0.987396 -0.415450 3.612288 -14.390348 11.624271 -3.260400 7.125000 0.000000 0.000000 8.220500 -17.689400 5.390000
-0.134070 17.659065 -4.791285 -3.553108 -6.948408 4.880695 2.068933 1.443488 0.563708 -12.384265 -10.544867 -32.377720 2.319146 11.273489 31.783224 -2.089330 11.130556 1.968752 0.105141 -2.083857 -5.737811 -3.551987 -2.890335 0.597608 32.467772 4.456083 4.843149 -0.701458 -4.453243 16.174980 0.278792 -2.924898 -6.707001 -0.138544 -2.395784 6.600900 4.500972 2.786093 6.752884 1.090443 3.694111 -0.936275 0.719139 2.302821 -2.962748 -7.356702 -4.168760 -12.150007 5.167625 -4.875658 14.016978 3.243144 -2.539676 9.679514 -7.134766 3.182030 -2.462278 -81.504191 6.257435 26.079684 13.205463 -24.349187 -3.645499 -0.397002 -3.077997 8.232147 11.235182 23.230386 5.041157 -7.125000 0.000000 0.000000 -20.141320 55.660395 -5.428880 5.523350 -2.019600 -1.920791 79.860288 4.306227 20.516385 -16.288628 24.201520 -4.575459 0.988554 -0.455468 3.711862 -14.455932 12.066609 -3.405485 7.125000 0.000000 0.000000 8.170311 -17.194415 5.445250
-0.133641 17.651776 -4.693735 -3.715981 -7.048303 4.986029 2.029526 1.425324 0.540425 -11.919577 -10.919417 -32.349921 2.058493 10.893512 30.466594 -2.204481 11.707382 2.803337 0.123812 -2.267063 -6.244480 -3.537192 -2.890024 0.600234 32.586896 4.317742 5.334402 -0.649688 -4.289386 15.731648 0.310415 -3.037367 -6.593655 -0.123523 -2.264115 6.236253 4.648324 2.858004 6.709391 1.091610 3.794389 -0.945284 0.638003 2.355647 -2.949548 -7.268176 -4.188091 -12.157177 5.139699 -4.920667 13.990174 3.209423 -2.555623 9.669118 -7.133537 3.177144 -2.459993 -81.460871 6.298997 26.051108 13.127113 -24.232485 -3.600759 -0.388641 -3.085588 8.450992 11.059539 23.351435 4.973503 -7.125000 0.000000 0.000000 -20.415521 55.741151 -5.547284 5.514884 -2.013881 -1.919882 79.822055 4.499259 20.587287 -16.391067 24.343836 -4.631939 0.988903 -0.492967 3.837630 -14.519040 12.479410 -3.541181 7.125000 0.000000 0.000000 8.122564 -16.732730 5.496062
-0.134122 17.642952 -4.592397 -3.817875 -7.170146 5.016334 1.985498 1.411534 0.518407 -11.484707 -11.314755 -32.231505 1.818388 10.505697 29.171268 -2.299682 12.241807 3.665986 0.146218 -2.457645 -6.772521 -3.521152 -2.890537 0.599509 32.616596 4.141819 5.928977 -0.600914 -4.125690 15.296633 0.319563 -3.062921 -6.569861 -0.105335 -2.085923 5.743430 4.716189 2.913935 6.707785 1.097415 3.870565 -0.940645 0.608783 2.395573 -2.930652 -7.248942 -4.202034 -12.146561 5.139427 -4.940816 13.909936 3.203835 -2.562635 9.633426 -7.137022 3.176565 -2.451733 -81.462659 6.291124 25.934472 13.002599 -24.042553 -3.534938 -0.412532 -3.070235 8.540460 11.198365 23.141624 5.007454 -7.125000 0.000000 0.000000 -20.121082 55.564277 -5.375576 5.502410 -2.007866 -1.920874 79.774329 4.643495 20.624562 -16.550210 24.563934 -4.721819 0.982222 -0.508564 4.191088 -14.560624 12.635468 -3.595271 7.125000 0.000000 0.000000 8.096046 -16.560495 5.508293
-0.134217 17.634172 -4.491213 -3.927512 -7.296835 5.050160 1.941572 1.397880 0.495986 -11.042004 -11.703982 -32.118366 1.583253 10.118343 27.882751 -2.390760 12.771701 4.538865 0.172986 -2.672692 -7.369064 -3.505520 -2.891324 0.598927 32.644044 3.947625 6.493083 -0.553256 -3.964702 14.868520 0.325658 -3.068100 -6.519192 -0.085058 -1.868371 5.142364 4.795167 2.967781 6.700178 1.105736 3.944310 -0.936271 0.581975 2.434324 -2.909091 -7.246079 -4.214049 -12.129935 5.145661 -4.955306 13.834801 3.205209 -2.567961 9.598758 -7.141187 3.176940 -2.443999 -81.470490 6.292085 25.822998 12.879607 -23.854043 -3.468365 -0.437979 -3.059123 8.592997 11.372867 22.972577 5.066927 -7.125000 0.000000 0.000000 -19.815655 55.437477 -5.225778 5.491243 -2.001432 -1.921224 79.715354 4.797530 20.674743 -16.696451 24.765123 -4.804938 0.973635 -0.511729 4.506670 -14.567545 12.659403 -3.601865 7.125000 0.000000 0.000000 8.095844 -16.537460 5.511832
-0.132827 17.625563 -4.390624 -4.066925 -7.442163 5.097527 1.898036 1.384745 0.472014 -10.569170 -12.069708 -32.025524 1.367235 9.732761 26.620419 -2.465985 13.284165 5.451098 0.216532 -2.981841 -8.229079 -3.491458 -2.893163 0.598899 32.662830 3.683160 6.940003 -0.509893 -3.814133 14.466951 0.320012 -2.994911 -6.365158 -0.056748 -1.499439 4.124979 4.916887 3.013603 6.669486 1.123728 4.008707 -0.932918 0.564443 2.468560 -2.877283 -7.306176 -4.218648 -12.090195 5.176916 -4.948028 13.779294 3.233362 -2.566801 9.568022 -7.147970 3.180987 -2.438285 -81.501566 6.327027 25.731375 12.762470 -23.670999 -3.398898 -0.469406 -3.064320 8.503494 11.684588 22.960318 5.224559 -7.125000 0.000000 0.000000 -19.467969 55.503271 -5.160247 5.485101 -1.993386 -1.919104 79.613107 4.989259 20.774557 -16.793069 24.893583 -4.862054 0.957719 -0.467082 4.676573 -14.441149 12.175178 -3.425782 7.125000 0.000000 0.000000 8.196854 -17.088275 5.481940
-0.130642 17.617152 -4.290382 -4.183914 -7.569052 5.157401 1.855547 1.370659 0.447118 -10.115832 -12.468036 -31.936138 1.155888 9.345839 25.366591 -2.529540 13.748951 6.309471 0.257843 -3.263134 -9.012499 -3.476423 -2.894958 0.598614 32.650207 3.412784 7.339382 -0.470791 -3.676663 14.100881 0.307619 -2.892786 -6.221018 -0.032354 -1.132742 3.114498 5.027005 3.058669 6.609303 1.136283 4.067971 -0.922221 0.538331 2.500679 -2.806954 -7.343664 -4.221795 -12.101592 5.194586 -4.941648 13.742964 3.250238 -2.564711 9.553703 -7.155327 3.183113 -2.430808 -81.532317 6.320927 25.614368 12.644137 -23.484742 -3.329950 -0.494118 -3.067908 8.488536 11.899220 22.950216 5.333106 -7.125000 0.000000 0.000000 -19.227394 55.547574 -5.114315 5.481066 -1.986793 -1.916310 79.516567 5.212192 20.897158 -16.875486 25.000520 -4.908120 0.954906 -0.431879 4.701627 -14.435011 11.816693 -3.316406 7.125000 0.000000 0.000000 8.205244 -17.491070 5.416034
-0.126684 17.609184 -4.190915 -4.250878 -7.654811 5.245176 1.815391 1.354451 0.420159 -9.705984 -12.939090 -31.854465 0.954960 8.955927 24.131731 -2.567066 14.107379 7.047694 0.294167 -3.482290 -9.625049 -3.459217 -2.896654 0.597753 32.567518 3.129218 7.632712 -0.441196 -3.568418 13.814002 0.280179 -2.726110 -6.098951 -0.016696 -0.771033 2.119414 5.111242 3.102044 6.483331 1.136706 4.115786 -0.895142 0.493078 2.528075 -2.650696 -7.330717 -4.221706 -12.227063 5.181949 -4.937269 13.749414 3.241961 -2.560546 9.576003 -7.163964 3.180953 -2.419402 -81.562345 6.223271 25.440738 12.523134 -23.291317 -3.262158 -0.503852 -3.067906 8.639870 11.897269 22.944925 5.332157 -7.125000 0.000000 0.000000 -19.225760 55.543936 -5.112100 5.481730 -1.983437 -1.912010 79.432756 5.504732 21.070589 -16.926222 25.059444 -4.929537 0.981323 -0.417741 4.403560 -14.697141 11.738704 -3.355840 7.125000 0.000000 0.000000 8.007018 -17.563665 5.269790
